<?xml version="1.0" encoding="UTF-8"?>
<svg version="1.1" xmlns="http://www.w3.org/2000/svg" width="250" height="58" viewBox="0 0 500 117">
<path d="M0 0 C4.95 0 9.9 0 15 0 C18.37720237 6.75440473 19.29827176 11.99534623 19.29052734 19.42675781 C19.30060318 20.82312218 19.30060318 20.82312218 19.31088257 22.24769592 C19.32983396 25.31622704 19.33378554 28.38453904 19.3359375 31.453125 C19.34236813 33.59535816 19.34909669 35.73759044 19.35610962 37.87982178 C19.36807577 42.36863235 19.37179119 46.85736601 19.37060547 51.34619141 C19.37040249 57.08028926 19.39768638 62.81389035 19.43214989 68.54787064 C19.45445886 72.97300452 19.45844175 77.39801969 19.45738602 81.82320404 C19.45973665 83.93618224 19.46852966 86.04916398 19.48405075 88.16208649 C19.50378847 91.1269593 19.49784172 94.09077181 19.48583984 97.05566406 C19.49707886 97.91730667 19.50831787 98.77894928 19.51989746 99.66670227 C19.45307807 106.20806383 17.68194554 111.03806179 15 117 C10.05 117 5.1 117 0 117 C-3.12512987 110.74974027 -3.12512987 110.74974027 -3.14044189 106.80693054 C-3.14615204 105.92792084 -3.15186218 105.04891113 -3.15774536 104.14326477 C-3.15886322 103.176483 -3.15998108 102.20970123 -3.16113281 101.21362305 C-3.16609772 100.19723755 -3.17106262 99.18085205 -3.17617798 98.13366699 C-3.19082422 94.75967744 -3.19760587 91.38573491 -3.203125 88.01171875 C-3.20887463 85.67242938 -3.21463238 83.33314004 -3.22039795 80.99385071 C-3.23091509 76.08354472 -3.23675302 71.17325513 -3.24023438 66.26293945 C-3.24571915 59.96784244 -3.269744 53.67296172 -3.29820633 47.37793255 C-3.31682129 42.54382187 -3.32203772 37.70976339 -3.32357025 32.87561989 C-3.32660012 30.55476512 -3.33463984 28.23391134 -3.34775543 25.91309166 C-3.36479096 22.66674687 -3.36294151 19.42093177 -3.35644531 16.17456055 C-3.3656601 15.21385147 -3.37487488 14.2531424 -3.3843689 13.26332092 C-3.35321638 8.29902948 -3.13639222 5.08909192 0 1 C0 0.67 0 0.34 0 0 Z " fill="#383838" transform="translate(3,0)"/>
<path d="M0 0 C4.29 0 8.58 0 13 0 C19.10230868 9.45833649 18.70174276 18.05317545 18.59375 28.921875 C18.59203626 30.75408855 18.59210726 32.58630456 18.59387207 34.41851807 C18.59222583 38.24133041 18.57365005 42.06355135 18.54199219 45.88623047 C18.50220405 50.77762112 18.49796438 55.66824295 18.50545502 60.55976486 C18.50852792 64.33625287 18.49639465 68.11256908 18.47932434 71.8890152 C18.47231334 73.6926694 18.46916749 75.49634305 18.47001648 77.30001068 C18.46821282 79.81983012 18.44678676 82.33873741 18.41992188 84.85839844 C18.42285248 85.59722763 18.42578308 86.33605682 18.42880249 87.09727478 C18.35142292 91.81629579 17.33477474 94.92903222 15 99 C14.67 99.99 14.34 100.98 14 102 C9.05 102 4.1 102 -1 102 C-4.37512886 95.24974229 -4.37512886 95.24974229 -4.38095093 91.93333435 C-4.3894104 91.18345245 -4.39786987 90.43357056 -4.40658569 89.66096497 C-4.400513 88.85817612 -4.39444031 88.05538727 -4.38818359 87.22827148 C-4.39344055 86.36735901 -4.39869751 85.50644653 -4.40411377 84.6194458 C-4.41726932 81.7864748 -4.40859225 78.95407002 -4.3984375 76.12109375 C-4.40045933 74.14624423 -4.40337167 72.17139543 -4.40713501 70.19654846 C-4.41155218 66.06333284 -4.40514609 61.93031207 -4.39111328 57.79711914 C-4.37401061 52.50200893 -4.38387335 47.20735456 -4.40183067 41.91226101 C-4.41267529 37.83645701 -4.40921923 33.76076095 -4.4014473 29.68495369 C-4.39944775 27.73253386 -4.40189594 25.78010419 -4.40888596 23.82769585 C-4.41651276 21.09897798 -4.40487951 18.37099702 -4.38818359 15.64233398 C-4.39425629 14.8375209 -4.40032898 14.03270782 -4.40658569 13.20350647 C-4.35436187 8.59158351 -3.74643466 5.72238475 -1 2 C-0.67 1.34 -0.34 0.68 0 0 Z " fill="#383838" transform="translate(84,15)"/>
<path d="M0 0 C0.9796875 -0.01417969 1.959375 -0.02835938 2.96875 -0.04296875 C5.5 0.1875 5.5 0.1875 7.5 2.1875 C11.91383863 9.1692592 12.07331665 15.05558741 11.99609375 23.19140625 C11.99754898 24.42865952 11.99900421 25.66591278 12.00050354 26.94065857 C11.99884901 29.54697025 11.98733812 32.15329216 11.96655273 34.75952148 C11.9375692 38.74049499 11.94596081 42.72013789 11.95898438 46.70117188 C11.95274723 49.23958978 11.94435648 51.7780035 11.93359375 54.31640625 C11.93652939 55.50198624 11.93946503 56.68756622 11.94248962 57.90907288 C11.87180327 64.12181102 11.4861543 68.70188374 8.5 74.1875 C8.17 74.8475 7.84 75.5075 7.5 76.1875 C2.55 76.1875 -2.4 76.1875 -7.5 76.1875 C-11.54440953 68.63074771 -12.07684084 62.54334071 -11.99609375 54.05078125 C-11.99754898 52.81257126 -11.99900421 51.57436127 -12.00050354 50.29862976 C-11.99885057 47.69409825 -11.98735736 45.08955636 -11.96655273 42.48510742 C-11.94713863 39.82211225 -11.93685839 37.16157316 -11.94604492 34.4987793 C-11.95864544 30.64088015 -11.94996367 26.78365609 -11.93359375 22.92578125 C-11.93652939 21.73817703 -11.93946503 20.55057281 -11.94248962 19.32698059 C-11.87601067 13.50055807 -11.7393623 9.23274626 -8.5 4.1875 C-8.17 3.1975 -7.84 2.2075 -7.5 1.1875 C-4.89820337 -0.11339831 -2.9030812 0.01909922 0 0 Z " fill="#383838" transform="translate(50.5,40.8125)"/>
<path d="M0 0 C9.57 0 19.14 0 29 0 C29.66 1.32 30.32 2.64 31 4 C31.70125 4.9075 32.4025 5.815 33.125 6.75 C35.4130687 10.71598575 35.91328562 13.52310969 35 18 C33.3924837 20.78636158 31.64731925 23.18569115 29.65234375 25.6953125 C28.58440721 29.46826194 30.70199747 32.33667941 32.4375 35.625 C33.69672651 38.06489577 34.8701757 40.49384429 36 43 C35.505 43.99 35.505 43.99 35 45 C31.04 45 27.08 45 23 45 C22.05598958 42.52604167 21.11197917 40.05208333 20.16796875 37.578125 C19.02682874 35.05922063 17.79071357 33.09979564 16 31 C15.67 31 15.34 31 15 31 C14.67 34.96 14.34 38.92 14 43 C9.38 43 4.76 43 0 43 C0 28.81 0 14.62 0 0 Z M12 9 C12 12.63 12 16.26 12 20 C12.33 20 12.66 20 13 20 C13 16.37 13 12.74 13 9 C12.67 9 12.34 9 12 9 Z M14 9 C14 9.33 14 9.66 14 10 C15.65 10 17.3 10 19 10 C19 9.67 19 9.34 19 9 C17.35 9 15.7 9 14 9 Z M14 11 C14 13.31 14 15.62 14 18 C17.465 17.505 17.465 17.505 21 17 C21.042721 15.33388095 21.04063832 13.66617115 21 12 C19.87465895 10.64381501 19.87465895 10.64381501 16.9375 10.9375 C15.968125 10.958125 14.99875 10.97875 14 11 Z M22 11 C22 12.98 22 14.96 22 17 C22.33 17 22.66 17 23 17 C23 15.02 23 13.04 23 11 C22.67 11 22.34 11 22 11 Z M14 19 C18 20 18 20 18 20 Z " fill="#383838" transform="translate(233,20)"/>
<path d="M0 0 C9.57 0 19.14 0 29 0 C29 3.63 29 7.26 29 11 C23.72 11 18.44 11 13 11 C13 12.32 13 13.64 13 15 C17.95 15 22.9 15 28 15 C28 19.29 28 23.58 28 28 C23.05 28 18.1 28 13 28 C13 29.32 13 30.64 13 32 C18.28 32 23.56 32 29 32 C29 35.63 29 39.26 29 43 C19.43 43 9.86 43 0 43 C0 28.81 0 14.62 0 0 Z M11 9 C11 11.64 11 14.28 11 17 C11.33 17 11.66 17 12 17 C12 14.36 12 11.72 12 9 C11.67 9 11.34 9 11 9 Z M11 25 C11 27.97 11 30.94 11 34 C11.33 34 11.66 34 12 34 C12 31.03 12 28.06 12 25 C11.67 25 11.34 25 11 25 Z " fill="#383838" transform="translate(189,20)"/>
<path d="M0 0 C9.9 0 19.8 0 30 0 C30 9 30 9 29 11 C24.05 11 19.1 11 14 11 C14 12.65 14 14.3 14 16 C18.62 16 23.24 16 28 16 C28 20.29 28 24.58 28 29 C23.38 29 18.76 29 14 29 C14 33.62 14 38.24 14 43 C9.38 43 4.76 43 0 43 C0 28.81 0 14.62 0 0 Z M12 9 C12 11.97 12 14.94 12 18 C12.33 18 12.66 18 13 18 C13 15.03 13 12.06 13 9 C12.67 9 12.34 9 12 9 Z " fill="#383838" transform="translate(146,20)"/>
<path d="M0 0 C3.96 0 7.92 0 12 0 C11.63701704 6.69703553 8.83447006 11.16769394 5.5 16.875 C0.17595143 26.39263118 -1.60993568 34.1771878 -1 45 C-4.96 45 -8.92 45 -13 45 C-12.95617187 44.07703125 -12.91234375 43.1540625 -12.8671875 42.203125 C-12.89462377 28.32036997 -18.65244577 17.68690676 -25.8203125 6.04296875 C-27 4 -27 4 -27 2 C-22.71 2 -18.42 2 -14 2 C-11.69 6.95 -9.38 11.9 -7 17 C-6.030625 14.9375 -5.06125 12.875 -4.0625 10.75 C-3.51722656 9.58984375 -2.97195313 8.4296875 -2.41015625 7.234375 C-0.86798979 3.94059351 -0.86798979 3.94059351 0 0 Z " fill="#383838" transform="translate(488,18)"/>
<path d="M0 0 C11.55 0 23.1 0 35 0 C35 9 35 9 34 11 C31.03 11 28.06 11 25 11 C25 21.56 25 32.12 25 43 C20.05 43 15.1 43 10 43 C10 32.44 10 21.88 10 11 C7.03 11 4.06 11 1 11 C0 9 0 9 0 0 Z " fill="#383838" transform="translate(417,20)"/>
<path d="M0 0 C11.55 0 23.1 0 35 0 C35 9 35 9 34 11 C31.03 11 28.06 11 25 11 C25 21.56 25 32.12 25 43 C20.05 43 15.1 43 10 43 C10 32.44 10 21.88 10 11 C7.03 11 4.06 11 1 11 C0 9 0 9 0 0 Z " fill="#383838" transform="translate(278,20)"/>
<path d="M0 0 C4.29 0 8.58 0 13 0 C13 10.23 13 20.46 13 31 C17.62 31 22.24 31 27 31 C28 33 28 33 28 43 C18.76 43 9.52 43 0 43 C0 28.81 0 14.62 0 0 Z " fill="#383838" transform="translate(353,20)"/>
<path d="M0 0 C3.96 0 7.92 0 12 0 C12 14.19 12 28.38 12 43 C8.04 43 4.08 43 0 43 C0 28.81 0 14.62 0 0 Z " fill="#383838" transform="translate(325,20)"/>
<path d="M0 0 C3.63 0 7.26 0 11 0 C11 14.19 11 28.38 11 43 C7.37 43 3.74 43 0 43 C0 28.81 0 14.62 0 0 Z " fill="#383838" transform="translate(394,20)"/>
<path d="M0 0 C5.28 0 10.56 0 16 0 C18.94951265 5.25381941 20.8004693 8.82495113 20 15 C18.5625 18.3125 18.5625 18.3125 17 21 C16.67 21.66 16.34 22.32 16 23 C12.98046875 23.51953125 12.98046875 23.51953125 9.1875 23.8125 C7.94355469 23.92207031 6.69960938 24.03164062 5.41796875 24.14453125 C1.75965957 23.98983703 0.52688539 23.57023882 -2 21 C-2.6875 19.25 -2.6875 19.25 -3 17 C-3.268125 15.96875 -3.53625 14.9375 -3.8125 13.875 C-4.07641108 8.42083763 -2.2402985 4.95581183 0 0 Z M3 6 C1.49337903 9.01324195 1.82229627 11.68286377 2 15 C2.66 15.66 3.32 16.32 4 17 C4.66 17 5.32 17 6 17 C8.33333333 17 10.66666667 17 13 17 C14.80441192 12.32047386 14.80441192 12.32047386 14.125 7.5625 C13.568125 6.7890625 13.568125 6.7890625 13 6 C11.906875 6 10.81375 6 9.6875 6 C7.45833333 6 5.22916667 6 3 6 Z " fill="#383838" transform="translate(337,81)"/>
<path d="M0 0 C1.1446875 -0.03996094 2.289375 -0.07992187 3.46875 -0.12109375 C6.5 0.4375 6.5 0.4375 8.33203125 2.84765625 C8.71746094 3.70230469 9.10289062 4.55695313 9.5 5.4375 C9.891875 6.05625 10.28375 6.675 10.6875 7.3125 C12.38688531 11.75704619 11.92578015 15.45635445 10.0625 19.75 C9.2890625 21.0803125 9.2890625 21.0803125 8.5 22.4375 C8.17 23.0975 7.84 23.7575 7.5 24.4375 C4.33984375 24.8515625 4.33984375 24.8515625 0.4375 25.0625 C-0.85285156 25.13726562 -2.14320313 25.21203125 -3.47265625 25.2890625 C-4.47167969 25.33804688 -5.47070312 25.38703125 -6.5 25.4375 C-6.95375 24.674375 -7.4075 23.91125 -7.875 23.125 C-9.03824492 21.20117186 -10.2529415 19.30808776 -11.5 17.4375 C-12.17368743 12.23623673 -11.7164165 7.22029351 -9.5 2.4375 C-5.96896738 0.08347825 -4.19217138 0.08025553 0 0 Z M-5.5 7.4375 C-7.00662097 10.45074195 -6.67770373 13.12036377 -6.5 16.4375 C-5.84 17.0975 -5.18 17.7575 -4.5 18.4375 C-3.51 18.4375 -2.52 18.4375 -1.5 18.4375 C-0.489375 18.499375 0.52125 18.56125 1.5625 18.625 C2.531875 18.563125 3.50125 18.50125 4.5 18.4375 C7.06687367 14.5871895 6.33288724 12.85180237 5.5 8.4375 C2.05465996 7.57616499 -0.10379646 7.50061626 -3.5 8.4375 C-4.16 8.1075 -4.82 7.7775 -5.5 7.4375 Z " fill="#383838" transform="translate(452.5,79.5625)"/>
<path d="M0 0 C2.34079306 2.34079306 3.56454746 4.70763221 5.125 7.625 C5.66382813 8.62789062 6.20265625 9.63078125 6.7578125 10.6640625 C7.37269531 11.82035156 7.37269531 11.82035156 8 13 C8.33 9.04 8.66 5.08 9 1 C10.65 1 12.3 1 14 1 C14.02901394 4.4374823 14.04680335 7.87493312 14.0625 11.3125 C14.07087891 12.28896484 14.07925781 13.26542969 14.08789062 14.27148438 C14.09272461 15.67817383 14.09272461 15.67817383 14.09765625 17.11328125 C14.10551147 18.40939331 14.10551147 18.40939331 14.11352539 19.73168945 C14 22 14 22 13 25 C11.35 25 9.7 25 8 25 C7.67386719 24.32453125 7.34773438 23.6490625 7.01171875 22.953125 C6.35623047 21.61507812 6.35623047 21.61507812 5.6875 20.25 C5.25824219 19.36828125 4.82898438 18.4865625 4.38671875 17.578125 C2.8979892 14.65641669 2.8979892 14.65641669 0 11 C-0.33 14.96 -0.66 18.92 -1 23 C-2.65 23 -4.3 23 -6 23 C-6 15.74 -6 8.48 -6 1 C-4.02 0.67 -2.04 0.34 0 0 Z " fill="#383838" transform="translate(477,81)"/>
<path d="M0 0 C-0.1875 2.375 -0.1875 2.375 -1 5 C-4.85396294 7.38038888 -8.5702869 7.17371424 -13 7 C-13.68493373 9.85778033 -13.68493373 9.85778033 -14 13 C-13.01 14.485 -13.01 14.485 -12 16 C-10.68 15.67 -9.36 15.34 -8 15 C-8.33 13.35 -8.66 11.7 -9 10 C-6.03 10 -3.06 10 0 10 C0 13.96 0 17.92 0 22 C-3.42232972 23.14077657 -6.08673217 23.09815117 -9.6875 23.0625 C-11.45673828 23.04896484 -11.45673828 23.04896484 -13.26171875 23.03515625 C-14.61716797 23.01775391 -14.61716797 23.01775391 -16 23 C-18.95949775 17.91336325 -20.78353363 14.04440226 -20 8 C-18.5625 4.6875 -18.5625 4.6875 -17 2 C-16.67 1.34 -16.34 0.68 -16 0 C-13.41796875 -0.44921875 -13.41796875 -0.44921875 -10.1875 -0.6875 C-8.60001953 -0.81705078 -8.60001953 -0.81705078 -6.98046875 -0.94921875 C-4.37422205 -0.993624 -2.45910887 -0.79191642 0 0 Z M-5 14 C-4 18 -4 18 -4 18 Z " fill="#383838" transform="translate(288,81)"/>
<path d="M0 0 C0.16873478 1.43725871 0.33490737 2.87481838 0.5 4.3125 C0.5928125 5.11300781 0.685625 5.91351563 0.78125 6.73828125 C1 9 1 9 1 12 C1.33 12.33 1.66 12.66 2 13 C2.46793898 18.14732874 1.85503839 19.24160269 -1 24 C-5.29 23.67 -9.58 23.34 -14 23 C-14 15.74 -14 8.48 -14 1 C-2.25 0 -2.25 0 0 0 Z M-5 5 C-4 9 -4 9 -4 9 Z M-9 7 C-8 9 -8 9 -8 9 Z M-9 13 C-9 14.65 -9 16.3 -9 18 C-8.67 18 -8.34 18 -8 18 C-8 16.35 -8 14.7 -8 13 C-8.33 13 -8.66 13 -9 13 Z M-4 14 C-4.33 15.32 -4.66 16.64 -5 18 C-4.34 18 -3.68 18 -3 18 C-3.33 16.68 -3.66 15.36 -4 14 Z " fill="#383838" transform="translate(161,81)"/>
<path d="M0 0 C1.98 0 3.96 0 6 0 C8.1171875 2.40625 8.1171875 2.40625 9.875 5.5 C10.47054687 6.5209375 11.06609375 7.541875 11.6796875 8.59375 C12.11539063 9.3878125 12.55109375 10.181875 13 11 C13.33 7.37 13.66 3.74 14 0 C15.65 0 17.3 0 19 0 C19 7.26 19 14.52 19 22 C17.02 22.33 15.04 22.66 13 23 C12.66226563 22.31292969 12.32453125 21.62585938 11.9765625 20.91796875 C11.53054687 20.01691406 11.08453125 19.11585937 10.625 18.1875 C10.18414062 17.29417969 9.74328125 16.40085937 9.2890625 15.48046875 C7.98133095 12.85443619 7.98133095 12.85443619 6 10 C5.67 13.96 5.34 17.92 5 22 C3.35 22 1.7 22 0 22 C0 14.74 0 7.48 0 0 Z " fill="#383838" transform="translate(241,82)"/>
<path d="M0 0 C2.31 0 4.62 0 7 0 C7.33 4.95 7.66 9.9 8 15 C8.66 15 9.32 15 10 15 C10.33 10.05 10.66 5.1 11 0 C13.31 0 15.62 0 18 0 C18.05434116 2.5419589 18.0938339 5.08273682 18.125 7.625 C18.14175781 8.33785156 18.15851563 9.05070312 18.17578125 9.78515625 C18.21684602 14.2612164 17.69086567 17.77949278 16 22 C14.04235617 22.19456705 12.08384679 22.38044247 10.125 22.5625 C8.48917969 22.71912109 8.48917969 22.71912109 6.8203125 22.87890625 C4 23 4 23 2 22 C1.4375 20.0625 1.4375 20.0625 1 18 C0.67 17.34 0.34 16.68 0 16 C-0.07181821 13.28239892 -0.09299506 10.59140612 -0.0625 7.875 C-0.05798828 7.12089844 -0.05347656 6.36679688 -0.04882812 5.58984375 C-0.03703499 3.72652873 -0.01909942 1.86325445 0 0 Z " fill="#383838" transform="translate(382,82)"/>
<path d="M0 0 C3.63 0 7.26 0 11 0 C12.125 5.625 12.125 5.625 10 9 C10.99 10.485 10.99 10.485 12 12 C12.1953125 14.69921875 12.1953125 14.69921875 12.125 17.6875 C12.10695313 18.68136719 12.08890625 19.67523438 12.0703125 20.69921875 C12.03550781 21.83810547 12.03550781 21.83810547 12 23 C8.26039704 24.76536212 5.77661578 25.17021544 1.6875 24.625 C0.80449219 24.51414062 -0.07851563 24.40328125 -0.98828125 24.2890625 C-1.65214844 24.19367188 -2.31601562 24.09828125 -3 24 C-3.25 20.6875 -3.25 20.6875 -3 17 C-1 15.0625 -1 15.0625 1 14 C0.278125 13.360625 -0.44375 12.72125 -1.1875 12.0625 C-3 9 -3 9 -2.59765625 6.6640625 C-1.82560096 4.40838023 -0.91931161 2.19978136 0 0 Z M1 16 C2.98 16.99 2.98 16.99 5 18 C4.67 17.34 4.34 16.68 4 16 C3.01 16 2.02 16 1 16 Z M6 16 C7 19 7 19 7 19 Z " fill="#383838" transform="translate(315,80)"/>
<path d="M0 0 C5.94 0 11.88 0 18 0 C18 1.98 18 3.96 18 6 C16.68 6 15.36 6 14 6 C14 10.95 14 15.9 14 21 C7 22 7 22 5 21 C5 16.05 5 11.1 5 6 C3.68 5.67 2.36 5.34 1 5 C0.67 3.35 0.34 1.7 0 0 Z " fill="#383838" transform="translate(405,82)"/>
<path d="M0 0 C2.31 0 4.62 0 7 0 C7 4.95 7 9.9 7 15 C9.31 15 11.62 15 14 15 C14 17.31 14 19.62 14 22 C11.85423363 22.02685938 9.70837355 22.04633088 7.5625 22.0625 C6.36753906 22.07410156 5.17257813 22.08570312 3.94140625 22.09765625 C1 22 1 22 0 21 C-0.08685603 19.43827255 -0.10702219 17.87270656 -0.09765625 16.30859375 C-0.09443359 15.36435547 -0.09121094 14.42011719 -0.08789062 13.44726562 C-0.07951172 12.45404297 -0.07113281 11.46082031 -0.0625 10.4375 C-0.05798828 9.44041016 -0.05347656 8.44332031 -0.04882812 7.41601562 C-0.03700007 4.94395151 -0.02051849 2.47200482 0 0 Z " fill="#383838" transform="translate(185,82)"/>
<path d="M0 0 C2.31 0 4.62 0 7 0 C7 4.95 7 9.9 7 15 C8.98 15 10.96 15 13 15 C13.38133299 16.9914056 13.71325582 18.99279077 14 21 C13 22 13 22 10.05859375 22.09765625 C6.70572917 22.06510417 3.35286458 22.03255208 0 22 C0 14.74 0 7.48 0 0 Z " fill="#383838" transform="translate(206,82)"/>
<path d="M0 0 C5 0 5 0 7 1 C7 5.62 7 10.24 7 15 C8.98 15 10.96 15 13 15 C13 17.31 13 19.62 13 22 C8.71 22 4.42 22 0 22 C0 14.74 0 7.48 0 0 Z " fill="#383838" transform="translate(364,82)"/>
<path d="M0 0 C1.65 0 3.3 0 5 0 C5 7.26 5 14.52 5 22 C3.35 22 1.7 22 0 22 C0 14.74 0 7.48 0 0 Z " fill="#383838" transform="translate(429,82)"/>
<path d="M0 0 C1.65 0 3.3 0 5 0 C5 7.26 5 14.52 5 22 C3.35 22 1.7 22 0 22 C0 14.74 0 7.48 0 0 Z " fill="#383838" transform="translate(227,82)"/>
<path d="M0 0 C1.65 0 3.3 0 5 0 C5 7.26 5 14.52 5 22 C3.35 21.67 1.7 21.34 0 21 C0 14.07 0 7.14 0 0 Z " fill="#383838" transform="translate(171,82)"/>
<path d="M0 0 C0.33 0 0.66 0 1 0 C1 27.39 1 54.78 1 83 C0.67 83 0.34 83 0 83 C0 55.61 0 28.22 0 0 Z " fill="#383838" transform="translate(103,25)"/>
<path d="M0 0 C0.33 0 0.66 0 1 0 C1 18.81 1 37.62 1 57 C0.67 57 0.34 57 0 57 C0 38.19 0 19.38 0 0 Z " fill="#383838" transform="translate(63,51)"/>
<path d="M0 0 C0.33 0 0.66 0 1 0 C1 18.48 1 36.96 1 56 C0.67 56 0.34 56 0 56 C0 37.52 0 19.04 0 0 Z " fill="#383838" transform="translate(37,52)"/>
<path d="M0 0 C0.33 0 0.66 0 1 0 C1 14.19 1 28.38 1 43 C0.67 43 0.34 43 0 43 C0 28.81 0 14.62 0 0 Z " fill="#383838" transform="translate(406,20)"/>
<path d="M0 0 C0.33 0 0.66 0 1 0 C1 14.19 1 28.38 1 43 C0.67 43 0.34 43 0 43 C0 28.81 0 14.62 0 0 Z " fill="#383838" transform="translate(351,20)"/>
<path d="M0 0 C0.33 0 0.66 0 1 0 C1 14.19 1 28.38 1 43 C0.67 43 0.34 43 0 43 C0 28.81 0 14.62 0 0 Z " fill="#383838" transform="translate(338,20)"/>
<path d="M0 0 C0.33 0 0.66 0 1 0 C1 14.19 1 28.38 1 43 C0.67 43 0.34 43 0 43 C0 28.81 0 14.62 0 0 Z " fill="#383838" transform="translate(323,20)"/>
<path d="M0 0 C0.33 0 0.66 0 1 0 C1 14.19 1 28.38 1 43 C0.67 43 0.34 43 0 43 C0 28.81 0 14.62 0 0 Z " fill="#383838" transform="translate(231,20)"/>
<path d="M0 0 C0.33 0 0.66 0 1 0 C1 14.19 1 28.38 1 43 C0.67 43 0.34 43 0 43 C0 28.81 0 14.62 0 0 Z " fill="#383838" transform="translate(187,20)"/>
<path d="M0 0 C0.33 0 0.66 0 1 0 C1 14.19 1 28.38 1 43 C0.67 43 0.34 43 0 43 C0 28.81 0 14.62 0 0 Z " fill="#383838" transform="translate(144,20)"/>
<path d="M0 0 C0.33 0 0.66 0 1 0 C1 13.86 1 27.72 1 42 C0.67 42 0.34 42 0 42 C0 28.14 0 14.28 0 0 Z " fill="#383838" transform="translate(392,20)"/>
<path d="M0 0 C10.89 0 21.78 0 33 0 C33 0.33 33 0.66 33 1 C22.11 1 11.22 1 0 1 C0 0.67 0 0.34 0 0 Z " fill="#383838" transform="translate(418,18)"/>
<path d="M0 0 C10.89 0 21.78 0 33 0 C33 0.33 33 0.66 33 1 C22.11 1 11.22 1 0 1 C0 0.67 0 0.34 0 0 Z " fill="#383838" transform="translate(279,18)"/>
<path d="M0 0 C9.57 0 19.14 0 29 0 C29 0.33 29 0.66 29 1 C19.43 1 9.86 1 0 1 C0 0.67 0 0.34 0 0 Z " fill="#383838" transform="translate(189,64)"/>
<path d="M0 0 C9.57 0 19.14 0 29 0 C29 0.33 29 0.66 29 1 C19.43 1 9.86 1 0 1 C0 0.67 0 0.34 0 0 Z " fill="#383838" transform="translate(189,18)"/>
<path d="M0 0 C9.57 0 19.14 0 29 0 C29 0.33 29 0.66 29 1 C19.43 1 9.86 1 0 1 C0 0.67 0 0.34 0 0 Z " fill="#383838" transform="translate(146,18)"/>
<path d="M0 0 C9.24 0 18.48 0 28 0 C28 0.33 28 0.66 28 1 C18.76 1 9.52 1 0 1 C0 0.67 0 0.34 0 0 Z " fill="#383838" transform="translate(353,64)"/>
<path d="M0 0 C7.92 0 15.84 0 24 0 C24 0.33 24 0.66 24 1 C16.08 1 8.16 1 0 1 C0 0.67 0 0.34 0 0 Z " fill="#383838" transform="translate(234,18)"/>
<path d="M0 0 C0.33 0 0.66 0 1 0 C1 6.93 1 13.86 1 21 C0.67 21 0.34 21 0 21 C0 14.07 0 7.14 0 0 Z " fill="#383838" transform="translate(261,82)"/>
<path d="M0 0 C0.33 0 0.66 0 1 0 C1 6.93 1 13.86 1 21 C0.67 21 0.34 21 0 21 C0 14.07 0 7.14 0 0 Z " fill="#383838" transform="translate(469,82)"/>
<path d="M0 0 C0.33 0 0.66 0 1 0 C1 6.93 1 13.86 1 21 C0.67 21 0.34 21 0 21 C0 14.07 0 7.14 0 0 Z " fill="#383838" transform="translate(435,82)"/>
<path d="M0 0 C0.33 0 0.66 0 1 0 C1 6.93 1 13.86 1 21 C0.67 21 0.34 21 0 21 C0 14.07 0 7.14 0 0 Z " fill="#383838" transform="translate(427,82)"/>
<path d="M0 0 C0.33 0 0.66 0 1 0 C1 6.93 1 13.86 1 21 C0.67 21 0.34 21 0 21 C0 14.07 0 7.14 0 0 Z " fill="#383838" transform="translate(239,82)"/>
<path d="M0 0 C0.33 0 0.66 0 1 0 C1 6.93 1 13.86 1 21 C0.67 21 0.34 21 0 21 C0 14.07 0 7.14 0 0 Z " fill="#383838" transform="translate(233,82)"/>
<path d="M0 0 C0.33 0 0.66 0 1 0 C1 6.93 1 13.86 1 21 C0.67 21 0.34 21 0 21 C0 14.07 0 7.14 0 0 Z " fill="#383838" transform="translate(225,82)"/>
<path d="M0 0 C0.33 0 0.66 0 1 0 C1 6.93 1 13.86 1 21 C0.67 21 0.34 21 0 21 C0 14.07 0 7.14 0 0 Z " fill="#383838" transform="translate(204,82)"/>
<path d="M0 0 C0.33 0 0.66 0 1 0 C1 6.93 1 13.86 1 21 C0.67 21 0.34 21 0 21 C0 14.07 0 7.14 0 0 Z " fill="#383838" transform="translate(145,82)"/>
<path d="M0 0 C0.33 0 0.66 0 1 0 C1 6.93 1 13.86 1 21 C0.67 21 0.34 21 0 21 C0 14.07 0 7.14 0 0 Z " fill="#383838" transform="translate(362,82)"/>
<path d="M0 0 C0.33 0 0.66 0 1 0 C1 6.6 1 13.2 1 20 C0.67 20 0.34 20 0 20 C0 13.4 0 6.8 0 0 Z " fill="#383838" transform="translate(492,83)"/>
<path d="M0 0 C0.33 0 0.66 0 1 0 C1 6.6 1 13.2 1 20 C0.67 20 0.34 20 0 20 C0 13.4 0 6.8 0 0 Z " fill="#383838" transform="translate(183,83)"/>
<path d="M0 0 C0.33 0 0.66 0 1 0 C1 6.27 1 12.54 1 19 C0.67 19 0.34 19 0 19 C0 12.73 0 6.46 0 0 Z " fill="#383838" transform="translate(169,83)"/>
<path d="M0 0 C5.61 0 11.22 0 17 0 C17 0.33 17 0.66 17 1 C11.39 1 5.78 1 0 1 C0 0.67 0 0.34 0 0 Z " fill="#383838" transform="translate(406,80)"/>
<path d="M0 0 C0.33 0 0.66 0 1 0 C1 5.28 1 10.56 1 16 C0.67 16 0.34 16 0 16 C0 10.72 0 5.44 0 0 Z " fill="#383838" transform="translate(380,82)"/>
<path d="M0 0 C0.33 0 0.66 0 1 0 C1 5.28 1 10.56 1 16 C0.67 16 0.34 16 0 16 C0 10.72 0 5.44 0 0 Z " fill="#383838" transform="translate(401,82)"/>
<path d="M0 0 C0.33 0 0.66 0 1 0 C1 5.28 1 10.56 1 16 C0.67 16 0.34 16 0 16 C0 10.72 0 5.44 0 0 Z " fill="#383838" transform="translate(473,47)"/>
<path d="M0 0 C0.33 0 0.66 0 1 0 C1 5.28 1 10.56 1 16 C0.67 16 0.34 16 0 16 C0 10.72 0 5.44 0 0 Z " fill="#383838" transform="translate(488,46)"/>
<path d="M0 0 C3.96 0 7.92 0 12 0 C12 0.33 12 0.66 12 1 C8.04 1 4.08 1 0 1 C0 0.67 0 0.34 0 0 Z " fill="#383838" transform="translate(207,105)"/>
<path d="M0 0 C3.96 0 7.92 0 12 0 C12 0.33 12 0.66 12 1 C8.04 1 4.08 1 0 1 C0 0.67 0 0.34 0 0 Z " fill="#383838" transform="translate(186,105)"/>
<path d="M0 0 C0.33 0 0.66 0 1 0 C1 3.3 1 6.6 1 10 C0.34 9.67 -0.32 9.34 -1 9 C-0.67 6.03 -0.34 3.06 0 0 Z " fill="#383838" transform="translate(484,82)"/>
<path d="M0 0 C3.96 0 7.92 0 12 0 C12 0.33 12 0.66 12 1 C8.04 1 4.08 1 0 1 C0 0.67 0 0.34 0 0 Z " fill="#383838" transform="translate(147,80)"/>
<path d="M0 0 C3.96 0 7.92 0 12 0 C12 0.33 12 0.66 12 1 C8.04 1 4.08 1 0 1 C0 0.67 0 0.34 0 0 Z " fill="#383838" transform="translate(462,18)"/>
<path d="M0 0 C3.63 0 7.26 0 11 0 C11 0.33 11 0.66 11 1 C7.37 1 3.74 1 0 1 C0 0.67 0 0.34 0 0 Z " fill="#383838" transform="translate(365,105)"/>
<path d="M0 0 C2.56687367 3.8503105 1.83288724 5.58569763 1 10 C0.67 10 0.34 10 0 10 C0 6.7 0 3.4 0 0 Z " fill="#383838" transform="translate(477,93)"/>
<path d="M0 0 C0.99 0.495 0.99 0.495 2 1 C1.67 3.64 1.34 6.28 1 9 C0.67 9 0.34 9 0 9 C0 6.03 0 3.06 0 0 Z " fill="#383838" transform="translate(247,94)"/>
<path d="M0 0 C0.33 0 0.66 0 1 0 C1 3.63 1 7.26 1 11 C0.67 11 0.34 11 0 11 C0 7.37 0 3.74 0 0 Z " fill="#383838" transform="translate(289,91)"/>
<path d="M0 0 C0.33 0 0.66 0 1 0 C1 2.97 1 5.94 1 9 C0.34 8.67 -0.32 8.34 -1 8 C-0.67 5.36 -0.34 2.72 0 0 Z " fill="#383838" transform="translate(253,82)"/>
<path d="M0 0 C3.63 0 7.26 0 11 0 C11 0.33 11 0.66 11 1 C7.37 1 3.74 1 0 1 C0 0.67 0 0.34 0 0 Z " fill="#383838" transform="translate(475,64)"/>
<path d="M0 0 C3.63 0 7.26 0 11 0 C11 0.33 11 0.66 11 1 C7.37 1 3.74 1 0 1 C0 0.67 0 0.34 0 0 Z " fill="#383838" transform="translate(429,64)"/>
<path d="M0 0 C3.63 0 7.26 0 11 0 C11 0.33 11 0.66 11 1 C7.37 1 3.74 1 0 1 C0 0.67 0 0.34 0 0 Z " fill="#383838" transform="translate(394,64)"/>
<path d="M0 0 C3.63 0 7.26 0 11 0 C11 0.33 11 0.66 11 1 C7.37 1 3.74 1 0 1 C0 0.67 0 0.34 0 0 Z " fill="#383838" transform="translate(325,64)"/>
<path d="M0 0 C3.63 0 7.26 0 11 0 C11 0.33 11 0.66 11 1 C7.37 1 3.74 1 0 1 C0 0.67 0 0.34 0 0 Z " fill="#383838" transform="translate(290,64)"/>
<path d="M0 0 C3.63 0 7.26 0 11 0 C11 0.33 11 0.66 11 1 C7.37 1 3.74 1 0 1 C0 0.67 0 0.34 0 0 Z " fill="#383838" transform="translate(233,64)"/>
<path d="M0 0 C3.63 0 7.26 0 11 0 C11 0.33 11 0.66 11 1 C7.37 1 3.74 1 0 1 C0 0.67 0 0.34 0 0 Z " fill="#383838" transform="translate(146,64)"/>
<path d="M0 0 C3.63 0 7.26 0 11 0 C11 0.33 11 0.66 11 1 C7.37 1 3.74 1 0 1 C0 0.67 0 0.34 0 0 Z " fill="#383838" transform="translate(394,18)"/>
<path d="M0 0 C3.63 0 7.26 0 11 0 C11 0.33 11 0.66 11 1 C7.37 1 3.74 1 0 1 C0 0.67 0 0.34 0 0 Z " fill="#383838" transform="translate(353,18)"/>
<path d="M0 0 C3.63 0 7.26 0 11 0 C11 0.33 11 0.66 11 1 C7.37 1 3.74 1 0 1 C0 0.67 0 0.34 0 0 Z " fill="#383838" transform="translate(325,18)"/>
<path d="M0 0 C0.86625 0.556875 0.86625 0.556875 1.75 1.125 C-0.89 1.125 -3.53 1.125 -6.25 1.125 C-2.80384615 -1.09038462 -2.80384615 -1.09038462 0 0 Z " fill="#383838" transform="translate(286.25,88.875)"/>
<path d="M0 0 C2.97 0 5.94 0 9 0 C9 0.33 9 0.66 9 1 C6.03 1 3.06 1 0 1 C0 0.67 0 0.34 0 0 Z " fill="#383838" transform="translate(276,105)"/>
<path d="M0 0 C0.33 0 0.66 0 1 0 C1 2.97 1 5.94 1 9 C0.67 9 0.34 9 0 9 C0 6.03 0 3.06 0 0 Z " fill="#383838" transform="translate(439,88)"/>
<path d="M0 0 C0.33 0 0.66 0 1 0 C1 2.97 1 5.94 1 9 C0.67 9 0.34 9 0 9 C0 6.03 0 3.06 0 0 Z " fill="#383838" transform="translate(382,54)"/>
<path d="M0 0 C0.33 0 0.66 0 1 0 C1 2.97 1 5.94 1 9 C0.67 9 0.34 9 0 9 C0 6.03 0 3.06 0 0 Z " fill="#383838" transform="translate(219,54)"/>
<path d="M0 0 C0.33 0 0.66 0 1 0 C1 2.97 1 5.94 1 9 C0.67 9 0.34 9 0 9 C0 6.03 0 3.06 0 0 Z " fill="#383838" transform="translate(175,38)"/>
<path d="M0 0 C0.33 0 0.66 0 1 0 C1 2.97 1 5.94 1 9 C0.67 9 0.34 9 0 9 C0 6.03 0 3.06 0 0 Z " fill="#383838" transform="translate(453,20)"/>
<path d="M0 0 C0.33 0 0.66 0 1 0 C1 2.97 1 5.94 1 9 C0.67 9 0.34 9 0 9 C0 6.03 0 3.06 0 0 Z " fill="#383838" transform="translate(415,20)"/>
<path d="M0 0 C0.33 0 0.66 0 1 0 C1 2.97 1 5.94 1 9 C0.67 9 0.34 9 0 9 C0 6.03 0 3.06 0 0 Z " fill="#383838" transform="translate(314,20)"/>
<path d="M0 0 C0.33 0 0.66 0 1 0 C1 2.97 1 5.94 1 9 C0.67 9 0.34 9 0 9 C0 6.03 0 3.06 0 0 Z " fill="#383838" transform="translate(276,20)"/>
<path d="M0 0 C0.33 0 0.66 0 1 0 C1 2.97 1 5.94 1 9 C0.67 9 0.34 9 0 9 C0 6.03 0 3.06 0 0 Z " fill="#383838" transform="translate(219,20)"/>
<path d="M0 0 C2.97 0 5.94 0 9 0 C9 0.33 9 0.66 9 1 C6.03 1 3.06 1 0 1 C0 0.67 0 0.34 0 0 Z " fill="#383838" transform="translate(86,14)"/>
<path d="M0 0 C2.64 0 5.28 0 8 0 C8 0.33 8 0.66 8 1 C5.36 1 2.72 1 0 1 C0 0.67 0 0.34 0 0 Z " fill="#383838" transform="translate(148,105)"/>
<path d="M0 0 C2.64 0 5.28 0 8 0 C8 0.33 8 0.66 8 1 C5.36 1 2.72 1 0 1 C0 0.67 0 0.34 0 0 Z " fill="#383838" transform="translate(448,79)"/>
<path d="M0 0 C2.64 0 5.28 0 8 0 C8 0.33 8 0.66 8 1 C5.36 1 2.72 1 0 1 C0 0.67 0 0.34 0 0 Z " fill="#383838" transform="translate(341,79)"/>
<path d="M0 0 C2.64 0 5.28 0 8 0 C8 0.33 8 0.66 8 1 C5.36 1 2.72 1 0 1 C0 0.67 0 0.34 0 0 Z " fill="#383838" transform="translate(276,79)"/>
<path d="M0 0 C0.33 0 0.66 0 1 0 C1 2.64 1 5.28 1 8 C0.67 8 0.34 8 0 8 C0 5.36 0 2.72 0 0 Z " fill="#383838" transform="translate(218,37)"/>
<path d="M0 0 C0.33 0 0.66 0 1 0 C1 2.64 1 5.28 1 8 C0.67 8 0.34 8 0 8 C0 5.36 0 2.72 0 0 Z " fill="#383838" transform="translate(269,30)"/>
<path d="M0 0 C2.31 0 4.62 0 7 0 C7 0.33 7 0.66 7 1 C4.69 1 2.38 1 0 1 C0 0.67 0 0.34 0 0 Z " fill="#383838" transform="translate(449,105)"/>
<path d="M0 0 C2.31 0 4.62 0 7 0 C7 0.33 7 0.66 7 1 C4.69 1 2.38 1 0 1 C0 0.67 0 0.34 0 0 Z " fill="#383838" transform="translate(342,105)"/>
<path d="M0 0 C0.33 0 0.66 0 1 0 C1 2.31 1 4.62 1 7 C0.67 7 0.34 7 0 7 C0 4.69 0 2.38 0 0 Z " fill="#383838" transform="translate(465,89)"/>
<path d="M0 0 C0.33 0 0.66 0 1 0 C1 2.31 1 4.62 1 7 C0.67 7 0.34 7 0 7 C0 4.69 0 2.38 0 0 Z " fill="#383838" transform="translate(447,89)"/>
<path d="M0 0 C0.33 0 0.66 0 1 0 C1 2.31 1 4.62 1 7 C0.67 7 0.34 7 0 7 C0 4.69 0 2.38 0 0 Z " fill="#383838" transform="translate(358,89)"/>
<path d="M0 0 C0.33 0 0.66 0 1 0 C1 2.31 1 4.62 1 7 C0.67 7 0.34 7 0 7 C0 4.69 0 2.38 0 0 Z " fill="#383838" transform="translate(266,89)"/>
<path d="M0 0 C0.33 0 0.66 0 1 0 C1 2.31 1 4.62 1 7 C0.67 7 0.34 7 0 7 C0 4.69 0 2.38 0 0 Z " fill="#383838" transform="translate(340,89)"/>
<path d="M0 0 C2.31 0 4.62 0 7 0 C7 0.33 7 0.66 7 1 C4.69 1 2.38 1 0 1 C0 0.67 0 0.34 0 0 Z " fill="#383838" transform="translate(317,79)"/>
<path d="M0 0 C2.31 0 4.62 0 7 0 C7 0.33 7 0.66 7 1 C4.69 1 2.38 1 0 1 C0 0.67 0 0.34 0 0 Z " fill="#383838" transform="translate(47,40)"/>
<path d="M0 0 C1.98 0.99 1.98 0.99 4 2 C3.67 2.66 3.34 3.32 3 4 C2.01 2.68 1.02 1.36 0 0 Z " fill="#383838" transform="translate(262,21)"/>
<path d="M0 0 C0.33 0 0.66 0 1 0 C1 2.31 1 4.62 1 7 C0.67 7 0.34 7 0 7 C0 4.69 0 2.38 0 0 Z " fill="#383838" transform="translate(177,21)"/>
<path d="M0 0 C1.98 0 3.96 0 6 0 C6 0.33 6 0.66 6 1 C4.02 1 2.04 1 0 1 C0 0.67 0 0.34 0 0 Z " fill="#383838" transform="translate(388,105)"/>
<path d="M0 0 C1.98 0 3.96 0 6 0 C6 0.33 6 0.66 6 1 C4.02 1 2.04 1 0 1 C0 0.67 0 0.34 0 0 Z " fill="#383838" transform="translate(316,105)"/>
<path d="M0 0 C0.33 0 0.66 0 1 0 C1 1.98 1 3.96 1 6 C0.67 6 0.34 6 0 6 C0 4.02 0 2.04 0 0 Z " fill="#383838" transform="translate(328,94)"/>
<path d="M0 0 C0.33 0 0.66 0 1 0 C1 1.98 1 3.96 1 6 C0.67 6 0.34 6 0 6 C0 4.02 0 2.04 0 0 Z " fill="#383838" transform="translate(164,94)"/>
<path d="M0 0 C1.98 0 3.96 0 6 0 C6 0.33 6 0.66 6 1 C4.02 1 2.04 1 0 1 C0 0.67 0 0.34 0 0 Z " fill="#383838" transform="translate(471,80)"/>
<path d="M0 0 C1.98 0 3.96 0 6 0 C6 0.33 6 0.66 6 1 C4.02 1 2.04 1 0 1 C0 0.67 0 0.34 0 0 Z " fill="#383838" transform="translate(241,80)"/>
<path d="M0 0 C1.65 0 3.3 0 5 0 C5 0.33 5 0.66 5 1 C3.35 1 1.7 1 0 1 C0 0.67 0 0.34 0 0 Z " fill="#383838" transform="translate(255,105)"/>
<path d="M0 0 C0.33 0 0.66 0 1 0 C1 1.65 1 3.3 1 5 C0.67 5 0.34 5 0 5 C0 3.35 0 1.7 0 0 Z " fill="#383838" transform="translate(163,85)"/>
<path d="M0 0 C1.65 0 3.3 0 5 0 C5 0.33 5 0.66 5 1 C3.35 1 1.7 1 0 1 C0 0.67 0 0.34 0 0 Z " fill="#383838" transform="translate(429,80)"/>
<path d="M0 0 C1.65 0 3.3 0 5 0 C5 0.33 5 0.66 5 1 C3.35 1 1.7 1 0 1 C0 0.67 0 0.34 0 0 Z " fill="#383838" transform="translate(395,80)"/>
<path d="M0 0 C1.65 0 3.3 0 5 0 C5 0.33 5 0.66 5 1 C3.35 1 1.7 1 0 1 C0 0.67 0 0.34 0 0 Z " fill="#383838" transform="translate(382,80)"/>
<path d="M0 0 C1.65 0 3.3 0 5 0 C5 0.33 5 0.66 5 1 C3.35 1 1.7 1 0 1 C0 0.67 0 0.34 0 0 Z " fill="#383838" transform="translate(255,80)"/>
<path d="M0 0 C1.65 0 3.3 0 5 0 C5 0.33 5 0.66 5 1 C3.35 1 1.7 1 0 1 C0 0.67 0 0.34 0 0 Z " fill="#383838" transform="translate(227,80)"/>
<path d="M0 0 C1.65 0 3.3 0 5 0 C5 0.33 5 0.66 5 1 C3.35 1 1.7 1 0 1 C0 0.67 0 0.34 0 0 Z " fill="#383838" transform="translate(206,80)"/>
<path d="M0 0 C1 4 1 4 1 4 Z " fill="#383838" transform="translate(78,107)"/>
<path d="M0 0 C4 1 4 1 4 1 Z " fill="#383838" transform="translate(412,105)"/>
<path d="M0 0 C4 1 4 1 4 1 Z " fill="#383838" transform="translate(172,105)"/>
<path d="M0 0 C1 4 1 4 1 4 Z " fill="#383838" transform="translate(200,99)"/>
<path d="M0 0 C1 4 1 4 1 4 Z " fill="#383838" transform="translate(349,93)"/>
<path d="M0 0 C1 4 1 4 1 4 Z " fill="#383838" transform="translate(275,93)"/>
<path d="M0 0 C1 4 1 4 1 4 Z " fill="#383838" transform="translate(349,88)"/>
<path d="M0 0 C1 4 1 4 1 4 Z " fill="#383838" transform="translate(275,88)"/>
<path d="M0 0 C1 4 1 4 1 4 Z " fill="#383838" transform="translate(424,82)"/>
<path d="M0 0 C1 4 1 4 1 4 Z " fill="#383838" transform="translate(403,82)"/>
<path d="M0 0 C4 1 4 1 4 1 Z " fill="#383838" transform="translate(486,80)"/>
<path d="M0 0 C4 1 4 1 4 1 Z " fill="#383838" transform="translate(364,80)"/>
<path d="M0 0 C4 1 4 1 4 1 Z " fill="#383838" transform="translate(186,80)"/>
<path d="M0 0 C4 1 4 1 4 1 Z " fill="#383838" transform="translate(172,80)"/>
<path d="M0 0 C0.66 0 1.32 0 2 0 C2 0.66 2 1.32 2 2 C1.34 2 0.68 2 0 2 C0 1.34 0 0.68 0 0 Z " fill="#383838" transform="translate(480,31)"/>
<path d="M0 0 C1 4 1 4 1 4 Z " fill="#383838" transform="translate(78,22)"/>
<path d="M0 0 C3 1 3 1 3 1 Z " fill="#383838" transform="translate(472,105)"/>
<path d="M0 0 C3 1 3 1 3 1 Z " fill="#383838" transform="translate(430,105)"/>
<path d="M0 0 C3 1 3 1 3 1 Z " fill="#383838" transform="translate(242,105)"/>
<path d="M0 0 C3 1 3 1 3 1 Z " fill="#383838" transform="translate(228,105)"/>
<path d="M0 0 C3 1 3 1 3 1 Z " fill="#383838" transform="translate(285,104)"/>
<path d="M0 0 C0.66 0.66 1.32 1.32 2 2 C1.34 2 0.68 2 0 2 C0 1.34 0 0.68 0 0 Z " fill="#383838" transform="translate(443,101)"/>
<path d="M0 0 C2 1 2 1 2 1 Z " fill="#383838" transform="translate(456,104)"/>
<path d="M0 0 C2 1 2 1 2 1 Z " fill="#383838" transform="translate(394,104)"/>
<path d="M0 0 C2 1 2 1 2 1 Z " fill="#383838" transform="translate(349,104)"/>
<path d="M0 0 C2 1 2 1 2 1 Z " fill="#383838" transform="translate(314,104)"/>
<path d="M0 0 C2 1 2 1 2 1 Z " fill="#383838" transform="translate(274,104)"/>
<path d="M0 0 C2 1 2 1 2 1 Z " fill="#383838" transform="translate(349,80)"/>
<path d="M0 0 C2 1 2 1 2 1 Z " fill="#383838" transform="translate(339,80)"/>
<path d="M0 0 C2 1 2 1 2 1 Z " fill="#383838" transform="translate(274,80)"/>
<path d="M0 0 C2 1 2 1 2 1 Z " fill="#383838" transform="translate(258,19)"/>
</svg>
